<svg width="22" height="22" viewBox="0 0 22 22" fill="none" xmlns="http://www.w3.org/2000/svg">
<path d="M13 14.0001V18.0001C13 18.7958 12.6839 19.5588 12.1213 20.1214C11.5587 20.6841 10.7956 21.0001 10 21.0001L6 12.0001V1.00012H17.28C17.7623 0.994669 18.2304 1.16372 18.5979 1.47612C18.9654 1.78852 19.2077 2.22322 19.28 2.70012L20.66 11.7001C20.7035 11.9868 20.6842 12.2794 20.6033 12.5579C20.5225 12.8363 20.3821 13.0938 20.1919 13.3126C20.0016 13.5314 19.7661 13.7062 19.5016 13.8249C19.2371 13.9436 18.9499 14.0034 18.66 14.0001H13ZM6 1.00012H3C2.46957 1.00012 1.96086 1.21084 1.58579 1.58591C1.21071 1.96098 1 2.46969 1 3.00012V10.0001C1 10.5306 1.21071 11.0393 1.58579 11.4143C1.96086 11.7894 2.46957 12.0001 3 12.0001H6" fill="#FFC0C0"/>
<path d="M6 1.00012H3C2.46957 1.00012 1.96086 1.21084 1.58579 1.58591C1.21071 1.96098 1 2.46969 1 3.00012V10.0001C1 10.5306 1.21071 11.0393 1.58579 11.4143C1.96086 11.7894 2.46957 12.0001 3 12.0001H6M13 14.0001V18.0001C13 18.7958 12.6839 19.5588 12.1213 20.1214C11.5587 20.6841 10.7956 21.0001 10 21.0001L6 12.0001V1.00012H17.28C17.7623 0.994669 18.2304 1.16372 18.5979 1.47612C18.9654 1.78852 19.2077 2.22322 19.28 2.70012L20.66 11.7001C20.7035 11.9868 20.6842 12.2794 20.6033 12.5579C20.5225 12.8363 20.3821 13.0938 20.1919 13.3126C20.0016 13.5314 19.7661 13.7062 19.5016 13.8249C19.2371 13.9436 18.9499 14.0034 18.66 14.0001H13Z" stroke="#BB0000" stroke-width="2" stroke-linecap="round" stroke-linejoin="round"/>
</svg>
