<svg width="33" height="33" fill="none" xmlns="http://www.w3.org/2000/svg"><g opacity=".3" clip-path="url(#clip0_1_979)"><path d="M18.857 12.66l-1.5-2.598m-5.196 3l1.5 2.599-2.598 1.5m5.598 3.696l-2.599 1.5m-1.63 7.176l-9.4-16.281a.6.6 0 01.22-.82l16.281-9.4a.6.6 0 01.82.22l3.4 5.889a.6.6 0 01-.22.82l-9.353 5.4a.6.6 0 00-.22.82l5.4 9.352a.6.6 0 01-.219.82l-5.889 3.4a.6.6 0 01-.82-.22z" stroke="#000" stroke-width="1.5" stroke-linecap="round" stroke-linejoin="round"/></g><defs><clipPath id="clip0_1_979"><path fill="#fff" transform="rotate(-30 22.392 6)" d="M0 0h24v24H0z"/></clipPath></defs></svg>