<svg width="25" height="24" fill="none" xmlns="http://www.w3.org/2000/svg"><path d="M14.592 3.454l2.121 2.121m0 0l1.413-1.414a1 1 0 011.414 0l.708.707a1 1 0 010 1.414l-1.415 1.415m-2.12-2.122l2.12 2.122m2.123 2.121l-2.123-2.121m-4.241 0l2.121 2.12a1 1 0 010 1.415L9.076 18.87a1.003 1.003 0 01-.326.218l-2.497 1.026c-1.233.508-2.466-.725-1.958-1.958l1.028-2.496a.999.999 0 01.218-.327l7.636-7.636a1 1 0 011.415 0z" stroke="#000" stroke-width="1.5" stroke-linecap="round" stroke-linejoin="round" opacity=".3"/></svg>