<svg width="25" height="24" fill="none" xmlns="http://www.w3.org/2000/svg"><g opacity=".3" clip-path="url(#clip0_1_981)" stroke="#000" stroke-width="1.5" stroke-linecap="round" stroke-linejoin="round"><path d="M15.005 3.223l7.071 7.07a2 2 0 010 2.829l-5.655 5.657a2 2 0 01-2.83 0l-7.07-7.071 8.485-8.485zm0 0l1.414-1.414"/><path d="M4.713 15s-3 2.993-3 4.887c0 1.655 1.345 3 3 3 1.656 0 2.988-1.345 3-3-.01-1.895-3-4.887-3-4.887z" stroke-miterlimit="1.5"/></g><defs><clipPath id="clip0_1_981"><path fill="#fff" transform="matrix(-1 0 0 1 24.713 0)" d="M0 0h24v24H0z"/></clipPath></defs></svg>