<svg width="95" height="44" fill="none" xmlns="http://www.w3.org/2000/svg"><g clip-path="url(#clip0_155_406)"><path d="M7.527 6.205h1.007v14.82H7.527V6.204z" stroke="#DDA2A6"/><path d="M15.565 13.17l-.009.977-15.052-.13.009-.976 15.052.129z" stroke="#DDA2A6"/><path d="M14.132 17.988l-.641.753L1.964 9.21l.642-.753 11.526 9.53z" stroke="#DDA2A6"/><path d="M2.652 18.82l-.648-.748 11.441-9.63.648.748-11.441 9.63z" stroke="#DDA2A6"/><path d="M25.017 20.574c2.123 0 3.58-1.59 3.58-3.44 0-1.66-1.194-2.75-2.299-3.303l-1.579-.778c-.754-.38-1.193-.847-1.193-1.556 0-.778.597-1.383 1.509-1.383.947 0 1.86.76 2.404 1.677l1.666-1.297c-.93-1.452-2.298-2.368-4.035-2.368-2.228 0-3.684 1.504-3.684 3.458 0 1.711 1.053 2.748 2.245 3.336l1.685.83c.842.415 1.14.934 1.14 1.521 0 .692-.456 1.314-1.439 1.314-.877 0-1.806-.674-2.386-1.763l-1.666 1.297c.965 1.556 2.263 2.455 4.052 2.455zm4.961-.173h2.088V8.299h-2.088V20.4zm7.1.173c2.124 0 3.58-1.59 3.58-3.44 0-1.66-1.193-2.75-2.298-3.303l-1.58-.778c-.754-.38-1.192-.847-1.192-1.556 0-.778.596-1.383 1.508-1.383.948 0 1.86.76 2.404 1.677l1.667-1.297c-.93-1.452-2.299-2.368-4.035-2.368-2.229 0-3.685 1.504-3.685 3.458 0 1.711 1.053 2.748 2.246 3.336l1.684.83c.842.415 1.14.934 1.14 1.521 0 .692-.456 1.314-1.438 1.314-.877 0-1.807-.674-2.386-1.763l-1.667 1.297c.965 1.556 2.263 2.455 4.053 2.455zm7.86-.173h2.088v-3.942l3.912-8.16h-2.193l-2.772 6.033L43.096 8.3h-2.193l4.035 8.16v3.94zm6.781 0h2.088v-4.824h2.456c2.58 0 3.878-1.815 3.878-3.648 0-1.815-1.299-3.63-3.878-3.63H51.72V20.4zm2.088-6.777v-3.372h2.474c1.14 0 1.702.847 1.702 1.677 0 .847-.562 1.695-1.702 1.695h-2.474zm7.387 6.777h2.087v-5.17h5.667v5.17h2.088V8.299h-2.088v4.979h-5.667v-4.98h-2.087v12.103zm15.827.173c2.403 0 4.315-1.73 4.315-4.15V8.3H79.25v7.9c0 1.505-.948 2.352-2.228 2.352-1.299 0-2.228-.847-2.228-2.351V8.299h-2.088v8.125c0 2.42 1.895 4.15 4.316 4.15zm9.246 0c2.122 0 3.579-1.59 3.579-3.44 0-1.66-1.193-2.75-2.299-3.303l-1.578-.778c-.755-.38-1.193-.847-1.193-1.556 0-.778.596-1.383 1.508-1.383.948 0 1.86.76 2.404 1.677l1.666-1.297c-.93-1.452-2.298-2.368-4.035-2.368-2.228 0-3.684 1.504-3.684 3.458 0 1.711 1.053 2.748 2.246 3.336l1.684.83c.842.415 1.14.934 1.14 1.521 0 .692-.456 1.314-1.438 1.314-.877 0-1.807-.674-2.386-1.763l-1.667 1.297c.965 1.556 2.263 2.455 4.053 2.455z" fill="#DDA2A6"/><mask id="path-6-inside-1_155_406" fill="#fff"><path d="M8.35 25.02c-3.859 0-4.42 3.284-4.911 6.172-.404 2.334-.755 4.356-2.65 4.356-.157 0-.263.104-.263.26v1.59c0 .156.106.277.264.277 3.719 0 4.315-3.268 4.842-6.155.42-2.386.79-4.443 2.719-4.443.158 0 .28-.121.28-.26V25.28c0-.139-.122-.26-.28-.26zm1.211 0a.256.256 0 00-.263.259v1.539c0 .138.106.259.263.259h2.404l-1.737 10.27a.225.225 0 00.053.207c.052.07.123.104.21.104h1.79a.279.279 0 00.263-.225l1.754-10.356h2.492c.14 0 .263-.121.263-.26V25.28a.268.268 0 00-.264-.26H9.562zm13.64 0h-1.808a.268.268 0 00-.263.259v10.425h-1.053V25.279a.256.256 0 00-.263-.26h-1.807a.256.256 0 00-.263.26v10.287c0 .397.07.743.245 1.037.176.277.386.519.667.709.28.173.58.311.93.398a4 4 0 001.018.12c.35 0 .701-.034 1.017-.12.351-.087.65-.225.93-.398.28-.19.509-.432.667-.709a1.99 1.99 0 00.263-1.037V25.279c0-.139-.123-.26-.28-.26zm7.206 6.31v-4.167c0-.397-.105-.726-.298-1.02a2.437 2.437 0 00-.737-.657 3.837 3.837 0 00-.948-.363 5.078 5.078 0 00-1.017-.104h-2.632a.256.256 0 00-.263.26V37.38c0 .156.105.277.263.277h2.632c.333 0 .684-.035 1.017-.104.369-.087.685-.208.965-.363.299-.173.544-.398.737-.657.193-.294.298-.64.298-1.038 0-1.383 0-2.783-.017-4.166zm-2.333 4.166h-.018l-.035.035c-.053.017-.105.035-.175.035h-.07a.934.934 0 01-.194.034h-.754v-8.523h.754c.088.017.158.017.228.052a1.6 1.6 0 01.21.052c.018.017.036.034.054.034v8.281zm6.616-10.39a.326.326 0 00-.21-.087h-1.79a.265.265 0 00-.263.243l-1.439 12.102c-.017.069 0 .138.053.207a.293.293 0 00.21.087h1.79c.14 0 .245-.104.263-.242l1.439-12.103c.017-.069-.018-.138-.053-.207zm7.126-.208c-3.632 0-6.562 2.905-6.562 6.484 0 3.561 2.93 6.466 6.562 6.466 3.614 0 6.561-2.905 6.561-6.466 0-3.579-2.947-6.484-6.561-6.484zm0 10.823c-2.439 0-4.404-1.953-4.404-4.34 0-2.402 1.965-4.356 4.404-4.356 2.42 0 4.403 1.954 4.403 4.357 0 2.386-1.982 4.34-4.403 4.34zM56.014 25.02c-3.86 0-4.421 3.284-4.912 6.172-.404 2.334-.755 4.356-2.65 4.356-.157 0-.263.104-.263.26v1.59c0 .156.106.277.264.277 3.719 0 4.315-3.268 4.842-6.155.42-2.386.79-4.443 2.719-4.443.158 0 .28-.121.28-.26V25.28c0-.139-.122-.26-.28-.26z"/></mask><path d="M8.35 25.02c-3.859 0-4.42 3.284-4.911 6.172-.404 2.334-.755 4.356-2.65 4.356-.157 0-.263.104-.263.26v1.59c0 .156.106.277.264.277 3.719 0 4.315-3.268 4.842-6.155.42-2.386.79-4.443 2.719-4.443.158 0 .28-.121.28-.26V25.28c0-.139-.122-.26-.28-.26zm1.211 0a.256.256 0 00-.263.259v1.539c0 .138.106.259.263.259h2.404l-1.737 10.27a.225.225 0 00.053.207c.052.07.123.104.21.104h1.79a.279.279 0 00.263-.225l1.754-10.356h2.492c.14 0 .263-.121.263-.26V25.28a.268.268 0 00-.264-.26H9.562zm13.64 0h-1.808a.268.268 0 00-.263.259v10.425h-1.053V25.279a.256.256 0 00-.263-.26h-1.807a.256.256 0 00-.263.26v10.287c0 .397.07.743.245 1.037.176.277.386.519.667.709.28.173.58.311.93.398a4 4 0 001.018.12c.35 0 .701-.034 1.017-.12.351-.087.65-.225.93-.398.28-.19.509-.432.667-.709a1.99 1.99 0 00.263-1.037V25.279c0-.139-.123-.26-.28-.26zm7.206 6.31v-4.167c0-.397-.105-.726-.298-1.02a2.437 2.437 0 00-.737-.657 3.837 3.837 0 00-.948-.363 5.078 5.078 0 00-1.017-.104h-2.632a.256.256 0 00-.263.26V37.38c0 .156.105.277.263.277h2.632c.333 0 .684-.035 1.017-.104.369-.087.685-.208.965-.363.299-.173.544-.398.737-.657.193-.294.298-.64.298-1.038 0-1.383 0-2.783-.017-4.166zm-2.333 4.166h-.018l-.035.035c-.053.017-.105.035-.175.035h-.07a.934.934 0 01-.194.034h-.754v-8.523h.754c.088.017.158.017.228.052a1.6 1.6 0 01.21.052c.018.017.036.034.054.034v8.281zm6.616-10.39a.326.326 0 00-.21-.087h-1.79a.265.265 0 00-.263.243l-1.439 12.102c-.017.069 0 .138.053.207a.293.293 0 00.21.087h1.79c.14 0 .245-.104.263-.242l1.439-12.103c.017-.069-.018-.138-.053-.207zm7.126-.208c-3.632 0-6.562 2.905-6.562 6.484 0 3.561 2.93 6.466 6.562 6.466 3.614 0 6.561-2.905 6.561-6.466 0-3.579-2.947-6.484-6.561-6.484zm0 10.823c-2.439 0-4.404-1.953-4.404-4.34 0-2.402 1.965-4.356 4.404-4.356 2.42 0 4.403 1.954 4.403 4.357 0 2.386-1.982 4.34-4.403 4.34zM56.014 25.02c-3.86 0-4.421 3.284-4.912 6.172-.404 2.334-.755 4.356-2.65 4.356-.157 0-.263.104-.263.26v1.59c0 .156.106.277.264.277 3.719 0 4.315-3.268 4.842-6.155.42-2.386.79-4.443 2.719-4.443.158 0 .28-.121.28-.26V25.28c0-.139-.122-.26-.28-.26z" stroke="#DDA2A6" mask="url(#path-6-inside-1_155_406)"/><path d="M94.5 18.931c0 .672-.555 1.23-1.254 1.23-.7 0-1.255-.558-1.255-1.23 0-.672.555-1.229 1.255-1.229.7 0 1.254.557 1.254 1.23z" stroke="#DDA2A6"/><mask id="mask0_155_406" style="mask-type:luminance" maskUnits="userSpaceOnUse" x="59" y="18" width="26" height="26"><path d="M84.912 18.585H59.123V44h25.79V18.585z" fill="#fff"/></mask><g mask="url(#mask0_155_406)"><path d="M84.294 36.428c.036.363-.27.718-.729.718h-4.674c-.42 0-.826-.353-.948-.874-.633-2.689-3.075-4.685-5.983-4.685-2.908 0-5.35 1.996-5.982 4.685-.123.521-.528.874-.949.874h-4.674c-.46 0-.765-.355-.729-.718.62-6.164 5.9-10.989 12.334-10.989 6.434 0 11.714 4.825 12.334 10.989z" stroke="#DDA2A6"/></g></g><defs><clipPath id="clip0_155_406"><path fill="#fff" d="M0 0h95v44H0z"/></clipPath></defs></svg>