<svg width="332" height="230" fill="none" xmlns="http://www.w3.org/2000/svg"><g opacity=".3" clip-path="url(#clip0_1_977)"><path d="M18.857 12.66l-1.5-2.598m-5.196 3l1.5 2.599-2.598 1.5m5.598 3.696l-2.599 1.5m-1.63 7.176l-9.4-16.281a.6.6 0 01.22-.82l16.281-9.4a.6.6 0 01.82.22l3.4 5.889a.6.6 0 01-.22.82l-9.353 5.4a.6.6 0 00-.22.82l5.4 9.352a.6.6 0 01-.219.82l-5.889 3.4a.6.6 0 01-.82-.22z" stroke="#000" stroke-width="1.5" stroke-linecap="round" stroke-linejoin="round"/></g><g opacity=".3" clip-path="url(#clip1_1_977)" stroke="#000" stroke-width="1.5" stroke-linecap="round" stroke-linejoin="round"><path d="M322.006 5.223l7.071 7.07a2.003 2.003 0 010 2.829l-5.656 5.657a2.004 2.004 0 01-2.83 0l-7.07-7.071 8.485-8.485zm0 0l1.414-1.414"/><path d="M311.713 17s-3 2.993-3 4.887c0 1.655 1.345 3 3 3 1.656 0 2.988-1.345 3-3-.01-1.895-3-4.887-3-4.887z" stroke-miterlimit="1.5"/></g><path d="M217.592 5.454l2.121 2.121m0 0l1.413-1.414a1.001 1.001 0 011.414 0l.708.707a1.002 1.002 0 010 1.414l-1.415 1.415m-2.12-2.122l2.12 2.122m2.123 2.121l-2.123-2.121m-4.241 0l2.121 2.12a.994.994 0 01.217 1.09.995.995 0 01-.217.325l-7.637 7.638a1 1 0 01-.326.218l-2.497 1.026c-1.233.508-2.466-.725-1.958-1.958l1.028-2.496a.988.988 0 01.218-.327l7.636-7.636a.997.997 0 011.09-.217c.122.05.232.124.325.217z" stroke="#000" stroke-width="1.5" stroke-linecap="round" stroke-linejoin="round" opacity=".3"/><g opacity=".3" stroke="#000" stroke-width="1.5" stroke-linecap="round" stroke-linejoin="round"><path d="M119.713 4c-5.523 0-10 4.477-10 10s4.477 10 10 10 10-4.477 10-10-4.477-10-10-10z"/><path d="M115.713 23.168V16l4-7 4 7v7.168"/><path d="M115.713 16s1.127 1 2 1 2-1 2-1 1.127 1 2 1 2-1 2-1"/></g><g opacity=".4" stroke="#000" stroke-width="1.5" stroke-linecap="round" stroke-linejoin="round"><path d="M115 220.5a6.003 6.003 0 004.243-1.757 6.003 6.003 0 000-8.486 6.003 6.003 0 00-8.486 0 6.003 6.003 0 000 8.486A6.003 6.003 0 00115 220.5z"/><path d="M119 227.5a5.99 5.99 0 004.243-1.757A6.003 6.003 0 00119 215.5a6.003 6.003 0 00-4.243 1.757 6.003 6.003 0 000 8.486A6.003 6.003 0 00119 227.5z"/><path d="M111 227.5a5.99 5.99 0 004.243-1.757A6.003 6.003 0 00111 215.5a6.003 6.003 0 00-4.243 1.757 6.003 6.003 0 000 8.486A6.003 6.003 0 00111 227.5z"/></g><path d="M211.236 214c.265-.293.47-.636.603-1.008a2.996 2.996 0 00-.827-3.241 3.011 3.011 0 00-2.176-.759 3.01 3.01 0 00-2.072 1.008 2.999 2.999 0 002.406 4.983 3 3 0 002.066-.983zm0 0l9.764 8m1-4h1m4 0h1m-16.764 4a3.013 3.013 0 01.772 2.171 3.006 3.006 0 01-2.008 2.675 3.01 3.01 0 01-2.3-.135 2.996 2.996 0 01-.688-4.934 3.003 3.003 0 014.224.223zm0 0l9.764-8" stroke="#000" stroke-width="1.5" stroke-linecap="round" stroke-linejoin="round" opacity=".4"/><g opacity=".4" stroke="#000" stroke-width="1.5" stroke-linecap="round" stroke-linejoin="round"><path d="M13 209h-3a2.999 2.999 0 00-2.121 5.121A2.999 2.999 0 0010 215h3m0-6v6m0-6h3a2.999 2.999 0 012.121 5.121A2.999 2.999 0 0116 215h-3"/><path d="M10 221a2.999 2.999 0 00-2.121 5.121A2.999 2.999 0 0013 224v-3m-3 0h3m-3 0a2.999 2.999 0 01-2.121-5.121A2.999 2.999 0 0110 215h3v6m0-3a2.998 2.998 0 013-3 2.999 2.999 0 012.121 5.121A2.999 2.999 0 0113 218z"/></g><g opacity=".4" stroke="#000" stroke-width="1.5" stroke-linecap="round" stroke-linejoin="round"><path d="M328 224h-15v-15"/><path d="M310 212h15v15"/></g><defs><clipPath id="clip0_1_977"><path fill="#fff" transform="rotate(-30 22.392 6)" d="M0 0h24v24H0z"/></clipPath><clipPath id="clip1_1_977"><path fill="#fff" transform="matrix(-1 0 0 1 331.713 2)" d="M0 0h24v24H0z"/></clipPath></defs></svg>