<svg width="375" height="261" fill="none" xmlns="http://www.w3.org/2000/svg"><g opacity=".2"><mask id="mask0_117_119" style="mask-type:alpha" maskUnits="userSpaceOnUse" x="-60" y="0" width="1376" height="261"><path transform="rotate(180 1316 261)" fill="url(#paint0_radial_117_119)" d="M1316 261h1376v261H1316z"/></mask><g mask="url(#mask0_117_119)"><g opacity=".5"><g filter="url(#filter0_i_117_119)"><path d="M908.185 144.617c96.875-11.056 441.985 21.61 441.985 21.61v-21.61s-329.76-87.616-441.985-51.761C795.96 128.71 481.629 175.5 354.188 144.617 226.746 113.734-89.616 92.856-89.616 92.856v106.036s152.576-41.711 208.884-42.214c56.308-.503 107.92-1.731 239.232 38.322 131.313 40.052 452.811-39.327 549.685-50.383z" fill="#212121"/></g><path d="M908.185 144.617c96.875-11.056 441.985 21.61 441.985 21.61v-21.61s-329.76-87.616-441.985-51.761C795.96 128.71 481.629 175.5 354.188 144.617 226.746 113.734-89.616 92.856-89.616 92.856v106.036s152.576-41.711 208.884-42.214c56.308-.503 107.92-1.731 239.232 38.322 131.313 40.052 452.811-39.327 549.685-50.383z" stroke="#FED8FF"/></g><g style="mix-blend-mode:screen" opacity=".5"><g filter="url(#filter1_i_117_119)"><path d="M855.906 158.34c96.874 11.056 441.984-21.609 441.984-21.609v21.609s-271.1 15.617-441.984 51.762c-170.887 36.146-447.771-78.396-540.407-63.822-92.636 14.573-457.394 63.822-457.394 63.822V104.066s152.577 41.71 208.885 42.213c56.308.503 95.329 5.22 234.919-33.78 139.59-39 457.124 34.785 553.997 45.841z" fill="#212121"/></g><path d="M855.906 158.34c96.874 11.056 441.984-21.609 441.984-21.609v21.609s-271.1 15.617-441.984 51.762c-170.887 36.146-447.771-78.396-540.407-63.822-92.636 14.573-457.394 63.822-457.394 63.822V104.066s152.577 41.71 208.885 42.213c56.308.503 95.329 5.22 234.919-33.78 139.59-39 457.124 34.785 553.997 45.841z" stroke="#FED8FF"/></g></g></g><defs><filter id="filter0_i_117_119" x="-90.116" y="83.737" width="1440.79" height="126.964" filterUnits="userSpaceOnUse" color-interpolation-filters="sRGB"><feFlood flood-opacity="0" result="BackgroundImageFix"/><feBlend in="SourceGraphic" in2="BackgroundImageFix" result="shape"/><feColorMatrix in="SourceAlpha" values="0 0 0 0 0 0 0 0 0 0 0 0 0 0 0 0 0 0 127 0" result="hardAlpha"/><feOffset dy="4"/><feGaussianBlur stdDeviation="32"/><feComposite in2="hardAlpha" operator="arithmetic" k2="-1" k3="1"/><feColorMatrix values="0 0 0 0 1 0 0 0 0 0.886667 0 0 0 0 0.666667 0 0 0 1 0"/><feBlend in2="shape" result="effect1_innerShadow_117_119"/></filter><filter id="filter1_i_117_119" x="-142.395" y="100.722" width="1440.79" height="120.971" filterUnits="userSpaceOnUse" color-interpolation-filters="sRGB"><feFlood flood-opacity="0" result="BackgroundImageFix"/><feBlend in="SourceGraphic" in2="BackgroundImageFix" result="shape"/><feColorMatrix in="SourceAlpha" values="0 0 0 0 0 0 0 0 0 0 0 0 0 0 0 0 0 0 127 0" result="hardAlpha"/><feOffset dy="4"/><feGaussianBlur stdDeviation="32"/><feComposite in2="hardAlpha" operator="arithmetic" k2="-1" k3="1"/><feColorMatrix values="0 0 0 0 1 0 0 0 0 0.886667 0 0 0 0 0.666667 0 0 0 1 0"/><feBlend in2="shape" result="effect1_innerShadow_117_119"/></filter><radialGradient id="paint0_radial_117_119" cx="0" cy="0" r="1" gradientUnits="userSpaceOnUse" gradientTransform="matrix(0 130.5 -688 0 2004 391.5)"><stop stop-color="#D9D9D9"/><stop offset="1" stop-color="#D9D9D9" stop-opacity="0"/></radialGradient></defs></svg>