<svg width="208" height="96" fill="none" xmlns="http://www.w3.org/2000/svg"><g clip-path="url(#clip0_3058_368)"><path d="M15.832 46.463V12.948h3.378v33.515h-3.378z" stroke="#4C668B"/><path d="M.534 27.856l34.022.293-.03 3.314-34.022-.292.03-3.315z" stroke="#4C668B"/><path d="M5.612 17.624l26.06 21.548-2.166 2.544-26.06-21.548 2.166-2.544z" stroke="#4C668B"/><path d="M31.588 20.116L5.721 41.888l-2.188-2.525L29.4 17.592l2.188 2.524z" stroke="#4C668B"/><path d="M54.584 44.888c4.632 0 7.809-3.47 7.809-7.507 0-3.621-2.603-5.997-5.014-7.204l-3.445-1.698c-1.646-.83-2.603-1.848-2.603-3.395 0-1.697 1.301-3.018 3.292-3.018 2.067 0 4.057 1.66 5.244 3.66l3.636-2.83c-2.029-3.168-5.014-5.168-8.804-5.168-4.861 0-8.038 3.282-8.038 7.545 0 3.734 2.297 5.997 4.9 7.28l3.674 1.81c1.837.906 2.488 2.037 2.488 3.32 0 1.509-.995 2.867-3.139 2.867-1.914 0-3.942-1.471-5.205-3.848l-3.637 2.83c2.105 3.394 4.938 5.356 8.842 5.356zm10.823-.378h4.555V18.106h-4.555V44.51zm15.493.378c4.632 0 7.809-3.47 7.809-7.507 0-3.621-2.603-5.997-5.015-7.204l-3.445-1.698c-1.646-.83-2.602-1.848-2.602-3.395 0-1.697 1.3-3.018 3.291-3.018 2.067 0 4.058 1.66 5.244 3.66l3.637-2.83c-2.029-3.168-5.015-5.168-8.804-5.168-4.861 0-8.038 3.282-8.038 7.545 0 3.734 2.296 5.997 4.9 7.28l3.674 1.81c1.837.906 2.488 2.037 2.488 3.32 0 1.509-.995 2.867-3.139 2.867-1.914 0-3.943-1.471-5.206-3.848l-3.636 2.83c2.105 3.394 4.938 5.356 8.842 5.356zm17.148-.378h4.555v-8.6l8.536-17.804h-4.785l-6.048 13.164-6.277-13.164h-4.785l8.804 17.804v8.6zm14.795 0h4.555V33.986h5.359c5.627 0 8.459-3.96 8.459-7.959 0-3.96-2.832-7.921-8.459-7.921h-9.914V44.51zm4.555-14.786v-7.356h5.397c2.488 0 3.713 1.849 3.713 3.66 0 1.848-1.225 3.696-3.713 3.696h-5.397zm16.116 14.786h4.555V33.232h12.364V44.51h4.555V18.106h-4.555v10.863h-12.364V18.106h-4.555V44.51zm34.532.378c5.244 0 9.416-3.772 9.416-9.053v-17.73h-4.555v17.24c0 3.281-2.067 5.13-4.861 5.13-2.833 0-4.862-1.849-4.862-5.13v-17.24h-4.555v17.73c0 5.28 4.134 9.053 9.417 9.053zm20.173 0c4.631 0 7.808-3.47 7.808-7.507 0-3.621-2.603-5.997-5.014-7.204l-3.445-1.698c-1.646-.83-2.602-1.848-2.602-3.395 0-1.697 1.301-3.018 3.291-3.018 2.067 0 4.057 1.66 5.244 3.66l3.636-2.83c-2.028-3.168-5.014-5.168-8.803-5.168-4.861 0-8.038 3.282-8.038 7.545 0 3.734 2.296 5.997 4.899 7.28l3.675 1.81c1.837.906 2.488 2.037 2.488 3.32 0 1.509-.995 2.867-3.139 2.867-1.914 0-3.942-1.471-5.206-3.848l-3.636 2.83c2.105 3.394 4.938 5.356 8.842 5.356z" fill="#4C668B"/><mask id="path-6-inside-1_3058_368" fill="#fff"><path d="M18.22 54.588c-8.42 0-9.646 7.167-10.717 13.467-.88 5.092-1.646 9.505-5.78 9.505-.345 0-.575.227-.575.566v3.47c0 .34.23.604.575.604 8.114 0 9.416-7.13 10.564-13.429.919-5.205 1.723-9.694 5.933-9.694.345 0 .613-.264.613-.566v-3.357c0-.302-.268-.566-.613-.566zm2.641 0a.56.56 0 00-.574.566v3.357c0 .302.23.566.574.566h5.244l-3.79 22.406a.49.49 0 00.116.453c.115.15.268.226.46.226h3.903a.609.609 0 00.575-.49l3.827-22.595h5.436a.585.585 0 00.574-.566v-3.357a.584.584 0 00-.574-.566h-15.77zm29.757 0h-3.942a.584.584 0 00-.574.566V77.9h-2.297V55.154a.56.56 0 00-.574-.566h-3.943a.56.56 0 00-.574.566v22.444c0 .868.153 1.622.536 2.263.383.604.842 1.132 1.454 1.547a6.988 6.988 0 002.03.867 8.723 8.723 0 002.22.264c.765 0 1.53-.075 2.22-.264a6.986 6.986 0 002.028-.867 4.69 4.69 0 001.455-1.547c.382-.64.574-1.395.574-2.263V55.154c0-.302-.268-.566-.613-.566zm15.724 13.768v-9.09c0-.868-.23-1.585-.65-2.226a5.32 5.32 0 00-1.608-1.433 8.377 8.377 0 00-2.067-.792 11.086 11.086 0 00-2.22-.227h-5.742a.56.56 0 00-.574.566V81.56c0 .34.23.603.574.603h5.742c.727 0 1.493-.075 2.22-.226a8.108 8.108 0 002.105-.792 5.321 5.321 0 001.608-1.434c.42-.64.65-1.395.65-2.263 0-3.017 0-6.073-.038-9.09zm-5.09 9.091h-.039l-.076.076c-.115.037-.23.075-.383.075H60.6c-.153.038-.306.076-.421.076h-1.646V59.077h1.646c.191.038.344.038.497.113.192.038.345.076.46.113.038.038.076.076.114.076v18.068zm14.435-22.67a.711.711 0 00-.459-.189h-3.904c-.306 0-.536.227-.574.528l-3.14 26.405c-.037.151 0 .302.116.453a.638.638 0 00.459.188h3.904c.306 0 .536-.226.575-.528l3.138-26.404c.038-.151-.038-.302-.115-.453zm15.547-.453c-7.923 0-14.316 6.337-14.316 14.146 0 7.77 6.393 14.107 14.316 14.107 7.885 0 14.316-6.337 14.316-14.107 0-7.809-6.43-14.146-14.316-14.146zm0 23.614c-5.32 0-9.608-4.263-9.608-9.468 0-5.244 4.288-9.506 9.608-9.506 5.282 0 9.608 4.262 9.608 9.506 0 5.205-4.326 9.468-9.608 9.468zm30.978-23.35c-8.421 0-9.646 7.167-10.717 13.467-.881 5.092-1.646 9.505-5.78 9.505-.345 0-.574.227-.574.566v3.47c0 .34.229.604.574.604 8.115 0 9.416-7.13 10.564-13.429.919-5.205 1.723-9.694 5.933-9.694.345 0 .613-.264.613-.566v-3.357c0-.302-.268-.566-.613-.566z"/></mask><path d="M18.22 54.588c-8.42 0-9.646 7.167-10.717 13.467-.88 5.092-1.646 9.505-5.78 9.505-.345 0-.575.227-.575.566v3.47c0 .34.23.604.575.604 8.114 0 9.416-7.13 10.564-13.429.919-5.205 1.723-9.694 5.933-9.694.345 0 .613-.264.613-.566v-3.357c0-.302-.268-.566-.613-.566zm2.641 0a.56.56 0 00-.574.566v3.357c0 .302.23.566.574.566h5.244l-3.79 22.406a.49.49 0 00.116.453c.115.15.268.226.46.226h3.903a.609.609 0 00.575-.49l3.827-22.595h5.436a.585.585 0 00.574-.566v-3.357a.584.584 0 00-.574-.566h-15.77zm29.757 0h-3.942a.584.584 0 00-.574.566V77.9h-2.297V55.154a.56.56 0 00-.574-.566h-3.943a.56.56 0 00-.574.566v22.444c0 .868.153 1.622.536 2.263.383.604.842 1.132 1.454 1.547a6.988 6.988 0 002.03.867 8.723 8.723 0 002.22.264c.765 0 1.53-.075 2.22-.264a6.986 6.986 0 002.028-.867 4.69 4.69 0 001.455-1.547c.382-.64.574-1.395.574-2.263V55.154c0-.302-.268-.566-.613-.566zm15.724 13.768v-9.09c0-.868-.23-1.585-.65-2.226a5.32 5.32 0 00-1.608-1.433 8.377 8.377 0 00-2.067-.792 11.086 11.086 0 00-2.22-.227h-5.742a.56.56 0 00-.574.566V81.56c0 .34.23.603.574.603h5.742c.727 0 1.493-.075 2.22-.226a8.108 8.108 0 002.105-.792 5.321 5.321 0 001.608-1.434c.42-.64.65-1.395.65-2.263 0-3.017 0-6.073-.038-9.09zm-5.09 9.091h-.039l-.076.076c-.115.037-.23.075-.383.075H60.6c-.153.038-.306.076-.421.076h-1.646V59.077h1.646c.191.038.344.038.497.113.192.038.345.076.46.113.038.038.076.076.114.076v18.068zm14.435-22.67a.711.711 0 00-.459-.189h-3.904c-.306 0-.536.227-.574.528l-3.14 26.405c-.037.151 0 .302.116.453a.638.638 0 00.459.188h3.904c.306 0 .536-.226.575-.528l3.138-26.404c.038-.151-.038-.302-.115-.453zm15.547-.453c-7.923 0-14.316 6.337-14.316 14.146 0 7.77 6.393 14.107 14.316 14.107 7.885 0 14.316-6.337 14.316-14.107 0-7.809-6.43-14.146-14.316-14.146zm0 23.614c-5.32 0-9.608-4.263-9.608-9.468 0-5.244 4.288-9.506 9.608-9.506 5.282 0 9.608 4.262 9.608 9.506 0 5.205-4.326 9.468-9.608 9.468zm30.978-23.35c-8.421 0-9.646 7.167-10.717 13.467-.881 5.092-1.646 9.505-5.78 9.505-.345 0-.574.227-.574.566v3.47c0 .34.229.604.574.604 8.115 0 9.416-7.13 10.564-13.429.919-5.205 1.723-9.694 5.933-9.694.345 0 .613-.264.613-.566v-3.357c0-.302-.268-.566-.613-.566z" stroke="#4C668B" mask="url(#path-6-inside-1_3058_368)"/><path d="M206.773 41.304c0 1.8-1.483 3.272-3.328 3.272-1.845 0-3.328-1.471-3.328-3.272 0-1.8 1.483-3.272 3.328-3.272 1.845 0 3.328 1.472 3.328 3.272z" stroke="#4C668B"/><mask id="mask0_3058_368" style="mask-type:luminance" maskUnits="userSpaceOnUse" x="128" y="40" width="58" height="56"><path d="M185.264 40.55h-56.268V96h56.268V40.55z" fill="#fff"/></mask><g mask="url(#mask0_3058_368)"><path d="M184.502 79.419c.12 1.188-.877 2.218-2.177 2.218h-10.199c-1.262 0-2.332-1.034-2.644-2.364-1.317-5.6-6.407-9.766-12.478-9.766s-11.161 4.166-12.478 9.766c-.312 1.33-1.382 2.364-2.644 2.364h-10.198c-1.301 0-2.297-1.03-2.178-2.218 1.384-13.754 13.162-24.507 27.498-24.507s26.114 10.753 27.498 24.507z" stroke="#4C668B"/></g></g><defs><clipPath id="clip0_3058_368"><path fill="#fff" d="M0 0h207.273v96H0z"/></clipPath></defs></svg>