<svg width="204" height="96" fill="none" xmlns="http://www.w3.org/2000/svg"><g clip-path="url(#clip0_3058_355)"><path d="M15.59 46.463V12.948h3.309v33.515h-3.31z" stroke="#C69177"/><path d="M.534 27.857l33.47.292-.03 3.314-33.47-.292.03-3.314z" stroke="#C69177"/><path d="M5.527 17.63l25.64 21.542-2.127 2.539L3.4 20.168l2.127-2.538z" stroke="#C69177"/><path d="M31.084 20.117L5.632 41.882l-2.15-2.52 25.452-21.765 2.15 2.52z" stroke="#C69177"/><path d="M53.722 44.888c4.559 0 7.685-3.47 7.685-7.507 0-3.621-2.561-5.997-4.935-7.204l-3.39-1.698c-1.62-.83-2.562-1.848-2.562-3.395 0-1.697 1.28-3.018 3.24-3.018 2.034 0 3.993 1.66 5.16 3.66l3.58-2.83c-1.997-3.168-4.935-5.168-8.665-5.168-4.784 0-7.911 3.282-7.911 7.545 0 3.734 2.26 5.997 4.822 7.28l3.616 1.81c1.809.906 2.45 2.037 2.45 3.32 0 1.509-.98 2.867-3.09 2.867-1.884 0-3.88-1.471-5.123-3.848l-3.58 2.83c2.073 3.394 4.86 5.356 8.703 5.356zm10.652-.378h4.483V18.106h-4.483V44.51zm15.248.378c4.559 0 7.686-3.47 7.686-7.507 0-3.621-2.562-5.997-4.936-7.204l-3.39-1.698c-1.62-.83-2.562-1.848-2.562-3.395 0-1.697 1.281-3.018 3.24-3.018 2.034 0 3.993 1.66 5.161 3.66l3.58-2.83c-1.998-3.168-4.936-5.168-8.666-5.168-4.784 0-7.911 3.282-7.911 7.545 0 3.734 2.26 5.997 4.822 7.28l3.617 1.81c1.808.906 2.448 2.037 2.448 3.32 0 1.509-.979 2.867-3.089 2.867-1.883 0-3.88-1.471-5.123-3.848l-3.58 2.83c2.073 3.394 4.86 5.356 8.703 5.356zM96.5 44.51h4.483v-8.6l8.402-17.804h-4.71L98.722 31.27l-6.178-13.164h-4.71L96.5 35.91v8.6zm14.562 0h4.483V33.986h5.274c5.538 0 8.326-3.96 8.326-7.959 0-3.96-2.788-7.921-8.326-7.921h-9.757V44.51zm4.483-14.786v-7.356h5.312c2.449 0 3.654 1.849 3.654 3.66 0 1.848-1.205 3.696-3.654 3.696h-5.312zm15.862 14.786h4.483V33.232h12.168V44.51h4.483V18.106h-4.483v10.863H135.89V18.106h-4.483V44.51zm33.986.378c5.161 0 9.268-3.772 9.268-9.053v-17.73h-4.484v17.24c0 3.281-2.034 5.13-4.784 5.13-2.788 0-4.785-1.849-4.785-5.13v-17.24h-4.483v17.73c0 5.28 4.069 9.053 9.268 9.053zm19.855 0c4.558 0 7.685-3.47 7.685-7.507 0-3.621-2.562-5.997-4.935-7.204l-3.391-1.698c-1.62-.83-2.561-1.848-2.561-3.395 0-1.697 1.281-3.018 3.24-3.018 2.034 0 3.992 1.66 5.16 3.66l3.579-2.83c-1.996-3.168-4.935-5.168-8.664-5.168-4.785 0-7.911 3.282-7.911 7.545 0 3.734 2.26 5.997 4.822 7.28l3.616 1.81c1.809.906 2.449 2.037 2.449 3.32 0 1.509-.979 2.867-3.089 2.867-1.884 0-3.88-1.471-5.124-3.848l-3.579 2.83c2.072 3.394 4.86 5.356 8.703 5.356z" fill="#C69177"/><mask id="path-6-inside-1_3058_355" fill="#fff"><path d="M17.933 54.588c-8.288 0-9.494 7.167-10.548 13.467-.867 5.092-1.62 9.505-5.689 9.505-.34 0-.565.227-.565.566v3.47c0 .34.226.604.565.604 7.987 0 9.268-7.13 10.398-13.429.904-5.205 1.695-9.694 5.84-9.694.338 0 .602-.264.602-.566v-3.357c0-.302-.264-.566-.603-.566zm2.6 0a.555.555 0 00-.566.566v3.357c0 .302.227.566.566.566h5.16l-3.729 22.406c-.038.151 0 .34.113.453.113.15.264.226.452.226h3.843a.602.602 0 00.565-.49l3.767-22.595h5.35a.58.58 0 00.565-.566v-3.357a.58.58 0 00-.565-.566H20.532zm29.287 0h-3.88a.58.58 0 00-.566.566V77.9h-2.26V55.154a.555.555 0 00-.565-.566h-3.88a.555.555 0 00-.566.566v22.444c0 .868.151 1.622.528 2.263.376.604.828 1.132 1.431 1.547a6.82 6.82 0 001.997.867 8.457 8.457 0 002.185.264c.754 0 1.507-.075 2.185-.264a6.82 6.82 0 001.997-.867 4.662 4.662 0 001.431-1.547c.377-.64.565-1.395.565-2.263V55.154c0-.302-.263-.566-.602-.566zm15.475 13.768v-9.09c0-.868-.226-1.585-.64-2.226a5.265 5.265 0 00-1.582-1.433 8.162 8.162 0 00-2.035-.792 10.73 10.73 0 00-2.185-.227h-5.65a.555.555 0 00-.566.566V81.56c0 .34.226.603.565.603h5.651c.716 0 1.47-.075 2.185-.226a7.904 7.904 0 002.072-.792 5.265 5.265 0 001.583-1.434c.414-.64.64-1.395.64-2.263 0-3.017 0-6.073-.038-9.09zm-5.01 9.091h-.038l-.075.076a1.111 1.111 0 01-.377.075h-.15c-.151.038-.302.076-.415.076h-1.62V59.077h1.62c.188.038.339.038.49.113.188.038.339.076.452.113.038.038.075.076.113.076v18.068zm14.208-22.67a.694.694 0 00-.452-.189h-3.843c-.301 0-.527.227-.565.528l-3.09 26.405c-.037.151 0 .302.114.453a.623.623 0 00.452.188h3.843c.301 0 .527-.226.565-.528l3.089-26.404c.038-.151-.038-.302-.113-.453zm15.301-.453c-7.798 0-14.09 6.337-14.09 14.146 0 7.77 6.292 14.107 14.09 14.107 7.76 0 14.09-6.337 14.09-14.107 0-7.809-6.33-14.146-14.09-14.146zm0 23.614c-5.236 0-9.456-4.263-9.456-9.468 0-5.244 4.22-9.506 9.456-9.506 5.2 0 9.456 4.262 9.456 9.506 0 5.205-4.257 9.468-9.456 9.468zm30.489-23.35c-8.288 0-9.493 7.167-10.548 13.467-.867 5.092-1.62 9.505-5.689 9.505-.339 0-.565.227-.565.566v3.47c0 .34.226.604.565.604 7.987 0 9.268-7.13 10.398-13.429.904-5.205 1.695-9.694 5.839-9.694.339 0 .603-.264.603-.566v-3.357c0-.302-.264-.566-.603-.566z"/></mask><path d="M17.933 54.588c-8.288 0-9.494 7.167-10.548 13.467-.867 5.092-1.62 9.505-5.689 9.505-.34 0-.565.227-.565.566v3.47c0 .34.226.604.565.604 7.987 0 9.268-7.13 10.398-13.429.904-5.205 1.695-9.694 5.84-9.694.338 0 .602-.264.602-.566v-3.357c0-.302-.264-.566-.603-.566zm2.6 0a.555.555 0 00-.566.566v3.357c0 .302.227.566.566.566h5.16l-3.729 22.406c-.038.151 0 .34.113.453.113.15.264.226.452.226h3.843a.602.602 0 00.565-.49l3.767-22.595h5.35a.58.58 0 00.565-.566v-3.357a.58.58 0 00-.565-.566H20.532zm29.287 0h-3.88a.58.58 0 00-.566.566V77.9h-2.26V55.154a.555.555 0 00-.565-.566h-3.88a.555.555 0 00-.566.566v22.444c0 .868.151 1.622.528 2.263.376.604.828 1.132 1.431 1.547a6.82 6.82 0 001.997.867 8.457 8.457 0 002.185.264c.754 0 1.507-.075 2.185-.264a6.82 6.82 0 001.997-.867 4.662 4.662 0 001.431-1.547c.377-.64.565-1.395.565-2.263V55.154c0-.302-.263-.566-.602-.566zm15.475 13.768v-9.09c0-.868-.226-1.585-.64-2.226a5.265 5.265 0 00-1.582-1.433 8.162 8.162 0 00-2.035-.792 10.73 10.73 0 00-2.185-.227h-5.65a.555.555 0 00-.566.566V81.56c0 .34.226.603.565.603h5.651c.716 0 1.47-.075 2.185-.226a7.904 7.904 0 002.072-.792 5.265 5.265 0 001.583-1.434c.414-.64.64-1.395.64-2.263 0-3.017 0-6.073-.038-9.09zm-5.01 9.091h-.038l-.075.076a1.111 1.111 0 01-.377.075h-.15c-.151.038-.302.076-.415.076h-1.62V59.077h1.62c.188.038.339.038.49.113.188.038.339.076.452.113.038.038.075.076.113.076v18.068zm14.208-22.67a.694.694 0 00-.452-.189h-3.843c-.301 0-.527.227-.565.528l-3.09 26.405c-.037.151 0 .302.114.453a.623.623 0 00.452.188h3.843c.301 0 .527-.226.565-.528l3.089-26.404c.038-.151-.038-.302-.113-.453zm15.301-.453c-7.798 0-14.09 6.337-14.09 14.146 0 7.77 6.292 14.107 14.09 14.107 7.76 0 14.09-6.337 14.09-14.107 0-7.809-6.33-14.146-14.09-14.146zm0 23.614c-5.236 0-9.456-4.263-9.456-9.468 0-5.244 4.22-9.506 9.456-9.506 5.2 0 9.456 4.262 9.456 9.506 0 5.205-4.257 9.468-9.456 9.468zm30.489-23.35c-8.288 0-9.493 7.167-10.548 13.467-.867 5.092-1.62 9.505-5.689 9.505-.339 0-.565.227-.565.566v3.47c0 .34.226.604.565.604 7.987 0 9.268-7.13 10.398-13.429.904-5.205 1.695-9.694 5.839-9.694.339 0 .603-.264.603-.566v-3.357c0-.302-.264-.566-.603-.566z" stroke="#C69177" mask="url(#path-6-inside-1_3058_355)"/><path d="M203.499 41.304a3.27 3.27 0 01-3.267 3.272 3.27 3.27 0 01-3.267-3.272 3.27 3.27 0 013.267-3.272 3.27 3.27 0 013.267 3.272z" stroke="#C69177"/><mask id="mask0_3058_355" style="mask-type:luminance" maskUnits="userSpaceOnUse" x="126" y="40" width="57" height="56"><path d="M182.338 40.55h-55.379V96h55.379V40.55z" fill="#fff"/></mask><g mask="url(#mask0_3058_355)"><path d="M181.581 79.418c.118 1.197-.868 2.22-2.136 2.22h-10.037c-1.232 0-2.286-1.029-2.595-2.363-1.294-5.596-6.304-9.768-12.288-9.768s-10.994 4.172-12.289 9.768c-.309 1.334-1.362 2.362-2.594 2.362h-10.038c-1.267 0-2.254-1.022-2.135-2.22 1.362-13.759 12.957-24.505 27.056-24.505s25.693 10.746 27.056 24.506z" stroke="#C69177"/></g></g><defs><clipPath id="clip0_3058_355"><path fill="#fff" d="M0 0h204v96H0z"/></clipPath></defs></svg>