<svg width="204" height="97" fill="none" xmlns="http://www.w3.org/2000/svg"><g clip-path="url(#clip0_3058_341)"><path d="M15.59 46.772V13.03h3.309v33.742h-3.31z" stroke="#A19357"/><path d="M.534 28.036l33.47.294-.03 3.343-33.47-.294.03-3.343z" stroke="#A19357"/><path d="M5.527 17.744L31.169 39.43l-2.13 2.558L3.398 20.302l2.13-2.558z" stroke="#A19357"/><path d="M31.086 20.25L5.632 42.16 3.48 39.621l25.454-21.91 2.152 2.539z" stroke="#A19357"/><path d="M53.722 45.184c4.559 0 7.685-3.494 7.685-7.556 0-3.645-2.561-6.037-4.935-7.253l-3.39-1.708c-1.62-.835-2.562-1.86-2.562-3.417 0-1.709 1.28-3.038 3.24-3.038 2.034 0 3.993 1.67 5.16 3.683l3.58-2.848c-1.997-3.189-4.935-5.201-8.665-5.201-4.784 0-7.911 3.303-7.911 7.593 0 3.76 2.26 6.038 4.822 7.329l3.616 1.822c1.809.911 2.45 2.05 2.45 3.341 0 1.52-.98 2.886-3.09 2.886-1.884 0-3.88-1.48-5.123-3.873l-3.58 2.848c2.073 3.417 4.86 5.392 8.703 5.392zm10.652-.38h4.483V18.225h-4.483v26.579zm15.248.38c4.559 0 7.686-3.494 7.686-7.556 0-3.645-2.562-6.037-4.936-7.253l-3.39-1.708c-1.62-.835-2.562-1.86-2.562-3.417 0-1.709 1.281-3.038 3.24-3.038 2.034 0 3.993 1.67 5.161 3.683l3.58-2.848c-1.998-3.189-4.936-5.201-8.666-5.201-4.784 0-7.911 3.303-7.911 7.593 0 3.76 2.26 6.038 4.822 7.329l3.617 1.822c1.808.911 2.448 2.05 2.448 3.341 0 1.52-.979 2.886-3.089 2.886-1.883 0-3.88-1.48-5.123-3.873l-3.58 2.848c2.073 3.417 4.86 5.392 8.703 5.392zm16.877-.38h4.483v-8.657l8.402-17.922h-4.71l-5.952 13.252-6.178-13.252h-4.71L96.5 36.147v8.657zm14.562 0h4.483V34.21h5.274c5.538 0 8.326-3.986 8.326-8.011 0-3.987-2.788-7.974-8.326-7.974h-9.757v26.579zm4.483-14.884v-7.404h5.312c2.449 0 3.654 1.86 3.654 3.683 0 1.86-1.205 3.72-3.654 3.72h-5.312zm15.862 14.884h4.483V33.45h12.168v11.353h4.483V18.225h-4.483V29.16h-12.168V18.225h-4.483v26.579zm33.986.38c5.161 0 9.268-3.797 9.268-9.113V18.225h-4.484v17.352c0 3.304-2.034 5.164-4.784 5.164-2.788 0-4.785-1.86-4.785-5.164V18.225h-4.483v17.846c0 5.316 4.069 9.113 9.268 9.113zm19.855 0c4.558 0 7.685-3.494 7.685-7.556 0-3.645-2.562-6.037-4.935-7.253l-3.391-1.708c-1.62-.835-2.561-1.86-2.561-3.417 0-1.709 1.28-3.038 3.239-3.038 2.035 0 3.993 1.67 5.161 3.683l3.579-2.848c-1.996-3.189-4.935-5.201-8.664-5.201-4.785 0-7.912 3.303-7.912 7.593 0 3.76 2.261 6.038 4.823 7.329l3.616 1.822c1.809.911 2.449 2.05 2.449 3.341 0 1.52-.979 2.886-3.089 2.886-1.884 0-3.881-1.48-5.124-3.873l-3.579 2.848c2.072 3.417 4.86 5.392 8.703 5.392z" fill="#A19357"/><mask id="path-6-outside-1_3058_341" maskUnits="userSpaceOnUse" x=".131" y="57.639" width="122" height="31" fill="#000"><path fill="#fff" d="M.131 57.639h122v31h-122z"/><path d="M17.933 58.904c-8.288 0-9.494 7.215-10.548 13.556-.867 5.125-1.62 9.568-5.689 9.568-.34 0-.565.227-.565.57v3.492c0 .342.226.608.565.608 7.987 0 9.268-7.176 10.398-13.517.904-5.24 1.695-9.758 5.84-9.758.338 0 .602-.266.602-.57v-3.379c0-.304-.264-.57-.603-.57zm2.6 0a.557.557 0 00-.566.57v3.38c0 .303.227.569.566.569h5.16l-3.729 22.553a.502.502 0 00.113.456.536.536 0 00.452.228h3.843a.603.603 0 00.565-.494l3.767-22.743h5.35a.582.582 0 00.565-.57v-3.379a.582.582 0 00-.565-.57H20.532zm29.287 0h-3.88a.582.582 0 00-.566.57v22.895h-2.26V59.474a.557.557 0 00-.565-.57h-3.88a.557.557 0 00-.566.57v22.592c0 .873.151 1.632.528 2.278.376.607.828 1.139 1.431 1.556.603.38 1.244.684 1.997.874a8.4 8.4 0 002.185.266c.754 0 1.507-.076 2.185-.266a6.796 6.796 0 001.997-.874 4.68 4.68 0 001.431-1.556c.377-.646.565-1.405.565-2.278V59.474c0-.304-.263-.57-.602-.57zm15.475 13.86v-9.151c0-.874-.226-1.595-.64-2.24a5.278 5.278 0 00-1.582-1.443 8.133 8.133 0 00-2.035-.798 10.677 10.677 0 00-2.185-.227h-5.65a.557.557 0 00-.566.569v26.578c0 .342.226.608.565.608h5.651c.716 0 1.47-.076 2.185-.228a7.871 7.871 0 002.072-.797 5.277 5.277 0 001.583-1.443c.414-.645.64-1.405.64-2.278 0-3.038 0-6.113-.038-9.15zm-5.01 9.15h-.038l-.075.076c-.113.038-.226.076-.377.076h-.15c-.151.038-.302.076-.415.076h-1.62v-18.72h1.62c.188.039.339.039.49.115.188.038.339.076.452.114.038.038.075.075.113.075v18.187zm14.208-22.82a.692.692 0 00-.452-.19h-3.843c-.301 0-.527.228-.565.532l-3.09 26.578c-.037.152 0 .304.114.456.113.114.264.19.452.19h3.843c.301 0 .527-.228.565-.532l3.089-26.578c.038-.152-.038-.304-.113-.456zm15.301-.455c-7.798 0-14.09 6.378-14.09 14.238 0 7.822 6.292 14.2 14.09 14.2 7.76 0 14.09-6.378 14.09-14.2 0-7.86-6.33-14.238-14.09-14.238zm0 23.768c-5.236 0-9.456-4.29-9.456-9.53 0-5.278 4.22-9.568 9.456-9.568 5.2 0 9.456 4.29 9.456 9.568 0 5.24-4.257 9.53-9.456 9.53zm30.489-23.502c-8.288 0-9.493 7.214-10.548 13.555-.867 5.125-1.62 9.568-5.689 9.568-.339 0-.565.227-.565.57v3.492c0 .342.226.608.565.608 7.987 0 9.268-7.176 10.398-13.517.904-5.24 1.695-9.758 5.839-9.758.339 0 .603-.266.603-.57v-3.379c0-.304-.264-.57-.603-.57z"/></mask><path d="M17.933 58.904c-8.288 0-9.494 7.215-10.548 13.556-.867 5.125-1.62 9.568-5.689 9.568-.34 0-.565.227-.565.57v3.492c0 .342.226.608.565.608 7.987 0 9.268-7.176 10.398-13.517.904-5.24 1.695-9.758 5.84-9.758.338 0 .602-.266.602-.57v-3.379c0-.304-.264-.57-.603-.57zm2.6 0a.557.557 0 00-.566.57v3.38c0 .303.227.569.566.569h5.16l-3.729 22.553a.502.502 0 00.113.456.536.536 0 00.452.228h3.843a.603.603 0 00.565-.494l3.767-22.743h5.35a.582.582 0 00.565-.57v-3.379a.582.582 0 00-.565-.57H20.532zm29.287 0h-3.88a.582.582 0 00-.566.57v22.895h-2.26V59.474a.557.557 0 00-.565-.57h-3.88a.557.557 0 00-.566.57v22.592c0 .873.151 1.632.528 2.278.376.607.828 1.139 1.431 1.556.603.38 1.244.684 1.997.874a8.4 8.4 0 002.185.266c.754 0 1.507-.076 2.185-.266a6.796 6.796 0 001.997-.874 4.68 4.68 0 001.431-1.556c.377-.646.565-1.405.565-2.278V59.474c0-.304-.263-.57-.602-.57zm15.475 13.86v-9.151c0-.874-.226-1.595-.64-2.24a5.278 5.278 0 00-1.582-1.443 8.133 8.133 0 00-2.035-.798 10.677 10.677 0 00-2.185-.227h-5.65a.557.557 0 00-.566.569v26.578c0 .342.226.608.565.608h5.651c.716 0 1.47-.076 2.185-.228a7.871 7.871 0 002.072-.797 5.277 5.277 0 001.583-1.443c.414-.645.64-1.405.64-2.278 0-3.038 0-6.113-.038-9.15zm-5.01 9.15h-.038l-.075.076c-.113.038-.226.076-.377.076h-.15c-.151.038-.302.076-.415.076h-1.62v-18.72h1.62c.188.039.339.039.49.115.188.038.339.076.452.114.038.038.075.075.113.075v18.187zm14.208-22.82a.692.692 0 00-.452-.19h-3.843c-.301 0-.527.228-.565.532l-3.09 26.578c-.037.152 0 .304.114.456.113.114.264.19.452.19h3.843c.301 0 .527-.228.565-.532l3.089-26.578c.038-.152-.038-.304-.113-.456zm15.301-.455c-7.798 0-14.09 6.378-14.09 14.238 0 7.822 6.292 14.2 14.09 14.2 7.76 0 14.09-6.378 14.09-14.2 0-7.86-6.33-14.238-14.09-14.238zm0 23.768c-5.236 0-9.456-4.29-9.456-9.53 0-5.278 4.22-9.568 9.456-9.568 5.2 0 9.456 4.29 9.456 9.568 0 5.24-4.257 9.53-9.456 9.53zm30.489-23.502c-8.288 0-9.493 7.214-10.548 13.555-.867 5.125-1.62 9.568-5.689 9.568-.339 0-.565.227-.565.57v3.492c0 .342.226.608.565.608 7.987 0 9.268-7.176 10.398-13.517.904-5.24 1.695-9.758 5.839-9.758.339 0 .603-.266.603-.57v-3.379c0-.304-.264-.57-.603-.57z" stroke="#A19357" stroke-width="2" mask="url(#path-6-outside-1_3058_341)"/><path d="M200.232 45.373c2.081 0 3.767-1.7 3.767-3.797 0-2.097-1.686-3.797-3.767-3.797-2.08 0-3.767 1.7-3.767 3.797 0 2.097 1.687 3.797 3.767 3.797z" fill="#A19357"/><mask id="mask0_3058_341" style="mask-type:luminance" maskUnits="userSpaceOnUse" x="126" y="46" width="57" height="56"><path d="M182.338 46.185h-55.379V102h55.379V46.185z" fill="#fff"/></mask><g mask="url(#mask0_3058_341)"><path d="M181.581 85.31c.119 1.21-.872 2.237-2.136 2.237h-10.037c-1.23 0-2.285-1.033-2.594-2.38-1.295-5.629-6.302-9.83-12.289-9.83s-10.995 4.201-12.289 9.83c-.31 1.347-1.365 2.38-2.594 2.38h-10.038c-1.264 0-2.254-1.027-2.135-2.238 1.363-13.854 12.959-24.67 27.056-24.67 14.096 0 25.693 10.816 27.056 24.67z" stroke="#A19357"/></g></g><defs><clipPath id="clip0_3058_341"><path fill="#fff" d="M0 0h204v96.632H0z"/></clipPath></defs></svg>