<svg width="318" height="90" fill="none" xmlns="http://www.w3.org/2000/svg"><path d="M75.288 88H.28V70.08l30.976-36.224 12.16-11.776-12.16.64H2.84V2.24h69.888v17.92l-30.72 35.2-13.184 12.8 13.184-.64h33.28V88zm39.202 1.024c-6.485 0-12.459-1.11-17.92-3.328-5.376-2.304-10.027-5.461-13.952-9.472-3.925-4.01-6.955-8.661-9.088-13.952-2.133-5.376-3.2-11.136-3.2-17.28 0-6.144 1.067-11.861 3.2-17.152 2.133-5.376 5.163-10.07 9.088-14.08 3.925-4.01 8.576-7.125 13.952-9.344C102.031 2.112 108.005.96 114.49.96c6.571 0 12.544 1.152 17.92 3.456 5.376 2.219 10.027 5.333 13.952 9.344 3.925 4.01 6.955 8.704 9.088 14.08 2.133 5.29 3.2 11.008 3.2 17.152 0 6.144-1.067 11.904-3.2 17.28-2.133 5.29-5.163 9.941-9.088 13.952-3.925 4.01-8.576 7.168-13.952 9.472-5.376 2.219-11.349 3.328-17.92 3.328zm0-22.4c4.437 0 8.107-.939 11.008-2.816 2.987-1.877 5.205-4.437 6.656-7.68 1.451-3.328 2.176-7.04 2.176-11.136 0-4.181-.725-7.893-2.176-11.136-1.451-3.243-3.669-5.803-6.656-7.68-2.901-1.877-6.571-2.816-11.008-2.816-4.437 0-8.149.939-11.136 2.816-2.901 1.877-5.077 4.437-6.528 7.68-1.45 3.243-2.176 6.955-2.176 11.136 0 4.096.725 7.808 2.176 11.136 1.45 3.243 3.627 5.803 6.528 7.68 2.987 1.877 6.699 2.816 11.136 2.816zm83.364-.512h-26.88v-20.48h27.136c2.987 0 5.461-.427 7.424-1.28 2.048-.939 3.541-2.261 4.48-3.968 1.024-1.707 1.536-3.797 1.536-6.272 0-2.56-.512-4.65-1.536-6.272-.939-1.707-2.432-2.987-4.48-3.84-1.963-.853-4.437-1.28-7.424-1.28h-27.136V2.24h26.88c7.253 0 13.739 1.067 19.456 3.2 5.717 2.133 10.24 5.547 13.568 10.24 3.328 4.608 4.992 10.752 4.992 18.432 0 7.68-1.664 13.867-4.992 18.56-3.243 4.693-7.723 8.107-13.44 10.24-5.717 2.133-12.245 3.2-19.584 3.2zM184.67 88h-23.04V2.24h23.04V88zm64.811 0h-24.576l30.336-85.76h32.128L317.705 88h-25.216l-15.744-47.744-5.76-21.504-5.76 21.504L249.481 88zm44.16-16h-49.92V52.8h49.92V72z" fill="#CAC3A7"/></svg>